<?xml version="1.0" encoding="UTF-8"?>
<svg id="Capa_2" data-name="Capa 2" xmlns="http://www.w3.org/2000/svg" viewBox="0 0 37 37">
  <defs>
    <style>
      .cls-1 {
        fill: #fff;
      }
    </style>
  </defs>
  <g id="Capa_1-2" data-name="Capa 1">
    <g>
      <path class="cls-1" d="M18.5,0C8.3,0,0,8.3,0,18.5s8.3,18.5,18.5,18.5,18.5-8.3,18.5-18.5S28.7,0,18.5,0ZM18.5,34.88c-9.03,0-16.38-7.35-16.38-16.38S9.47,2.12,18.5,2.12s16.38,7.35,16.38,16.38-7.35,16.38-16.38,16.38Z"/>
      <path class="cls-1" d="M23.78,8.55h-10.57c-2.57,0-4.66,2.09-4.66,4.66v10.57c0,2.57,2.09,4.66,4.66,4.66h10.57c2.57,0,4.66-2.09,4.66-4.66v-10.57c0-2.57-2.09-4.66-4.66-4.66ZM26.89,23.78c0,1.71-1.39,3.11-3.11,3.11h-10.57c-1.71,0-3.11-1.39-3.11-3.11v-10.57c0-1.71,1.39-3.11,3.11-3.11h10.57c1.71,0,3.11,1.39,3.11,3.11v10.57ZM18.5,14.11c-2.42,0-4.39,1.97-4.39,4.39s1.97,4.39,4.39,4.39,4.39-1.97,4.39-4.39-1.97-4.39-4.39-4.39ZM18.5,21.34c-1.56,0-2.84-1.27-2.84-2.84s1.27-2.84,2.84-2.84,2.84,1.27,2.84,2.84-1.27,2.84-2.84,2.84ZM24.61,13.36c0,.54-.43.97-.97.97s-.97-.43-.97-.97.43-.97.97-.97.97.43.97.97Z"/>
    </g>
  </g>
</svg>