<?xml version="1.0" encoding="UTF-8"?>
<svg id="Capa_2" data-name="Capa 2" xmlns="http://www.w3.org/2000/svg" viewBox="0 0 37 37">
  <defs>
    <style>
      .cls-1 {
        fill: #fff;
      }
    </style>
  </defs>
  <g id="Capa_1-2" data-name="Capa 1">
    <g>
      <path class="cls-1" d="M18.5,0C8.3,0,0,8.3,0,18.5s8.3,18.5,18.5,18.5,18.5-8.3,18.5-18.5S28.7,0,18.5,0ZM18.5,34.88c-9.03,0-16.38-7.35-16.38-16.38S9.47,2.12,18.5,2.12s16.38,7.35,16.38,16.38-7.35,16.38-16.38,16.38Z"/>
      <path class="cls-1" d="M22.78,8.46h-2.51c-2.05,0-3.72,1.67-3.72,3.72v2.82h-2.34c-.58,0-1.06.47-1.06,1.06s.47,1.06,1.06,1.06h2.34v9.8c0,.58.47,1.06,1.06,1.06s1.06-.47,1.06-1.06v-9.8h3.62c.58,0,1.06-.47,1.06-1.06s-.47-1.06-1.06-1.06h-3.62v-2.82c0-.89.72-1.61,1.61-1.61h2.51c.58,0,1.06-.47,1.06-1.06s-.47-1.06-1.06-1.06Z"/>
    </g>
  </g>
</svg>