<?xml version="1.0" encoding="UTF-8"?>
<svg id="Capa_2" data-name="Capa 2" xmlns="http://www.w3.org/2000/svg" viewBox="0 0 223 199.78">
  <defs>
    <style>
      .cls-1 {
        fill-rule: evenodd;
      }

      .cls-1, .cls-2 {
        fill: #fff;
      }
    </style>
  </defs>
  <g id="Capa_1-2" data-name="Capa 1">
    <g>
      <path class="cls-1" d="M123.3,7.64v7.64h8.9v-7.94l12.15.22c26.44.44,37.31,4.19,50.26,17.24,6.9,6.98,10.51,12.88,13.71,22.31,7.21,21.17,5.34,46.79-4.67,63.99-4.5,7.68-11.49,14.97-19.37,20.12-6.54,4.23-15.49,7.77-24.17,9.52-3.34.7-16.78,1.57-24.22,1.57h-3.69v-7.86h-8.9v15.8l16.38-.22c20.75-.26,27.82-1.18,36.86-4.67,10.11-3.93,17.63-8.86,25.82-16.81,12.38-11.96,18.16-25.14,20.21-45.83.89-9.04.4-17.81-1.6-28.42-2.4-12.92-7.12-22.74-15.45-32.17-6.14-6.9-19.41-15.02-30.54-18.64-8.06-2.62-17.63-3.49-39.09-3.49h-12.6v7.64Z"/>
      <polygon class="cls-1" points="0 4.36 0 8.29 50.97 8.29 101.95 8.29 101.95 4.36 101.95 .44 50.97 .44 0 .44 0 4.36"/>
      <polygon class="cls-1" points="46.3 92.76 46.3 150.16 50.75 150.16 55.2 150.16 55.2 92.76 55.2 35.36 50.75 35.36 46.3 35.36 46.3 92.76"/>
      <g>
        <g>
          <path class="cls-2" d="M5.61,184.72H.55v-1.83h12.32v1.83h-5.09v14.82h-2.17v-14.82Z"/>
          <path class="cls-2" d="M19.95,183.11c1.09-.22,2.64-.35,4.12-.35,2.3,0,3.78.42,4.82,1.36.84.74,1.31,1.88,1.31,3.16,0,2.2-1.38,3.65-3.14,4.25v.07c1.28.45,2.05,1.63,2.45,3.36.54,2.32.94,3.93,1.28,4.57h-2.22c-.27-.47-.64-1.9-1.11-3.98-.49-2.3-1.38-3.16-3.33-3.23h-2.03v7.21h-2.15v-16.42ZM22.1,190.7h2.2c2.3,0,3.75-1.26,3.75-3.16,0-2.15-1.56-3.09-3.83-3.11-1.04,0-1.78.1-2.12.2v6.08Z"/>
          <path class="cls-2" d="M41.17,194.3l-1.73,5.24h-2.22l5.66-16.64h2.59l5.68,16.64h-2.3l-1.78-5.24h-5.9ZM46.62,192.62l-1.63-4.79c-.37-1.09-.62-2.07-.86-3.04h-.05c-.25.99-.52,2-.84,3.01l-1.63,4.82h5.01Z"/>
          <path class="cls-2" d="M61.61,199.54l-5.43-16.64h2.32l2.59,8.2c.72,2.25,1.33,4.27,1.78,6.22h.05c.47-1.93,1.16-4.02,1.9-6.2l2.82-8.22h2.3l-5.95,16.64h-2.37Z"/>
          <path class="cls-2" d="M85.59,191.73h-6.47v6h7.21v1.8h-9.36v-16.64h8.99v1.8h-6.84v5.26h6.47v1.78Z"/>
          <path class="cls-2" d="M94.35,182.89h2.15v14.84h7.11v1.8h-9.26v-16.64Z"/>
        </g>
        <path class="cls-2" d="M121.71,183.11c1.31-.2,2.87-.35,4.57-.35,3.09,0,5.29.72,6.74,2.07,1.48,1.36,2.35,3.28,2.35,5.98s-.84,4.94-2.39,6.47c-1.56,1.56-4.12,2.39-7.36,2.39-1.53,0-2.82-.07-3.9-.2v-16.37ZM123.86,197.83c.54.1,1.33.12,2.17.12,4.59,0,7.09-2.57,7.09-7.06.03-3.93-2.2-6.42-6.74-6.42-1.11,0-1.95.1-2.52.22v13.14Z"/>
        <path class="cls-2" d="M152.01,191.73h-6.47v6h7.21v1.8h-9.36v-16.64h8.99v1.8h-6.84v5.26h6.47v1.78Z"/>
        <path class="cls-2" d="M160.48,196.92c.96.59,2.37,1.09,3.85,1.09,2.2,0,3.48-1.16,3.48-2.84,0-1.56-.89-2.44-3.14-3.31-2.72-.96-4.4-2.37-4.4-4.72,0-2.59,2.15-4.52,5.38-4.52,1.7,0,2.94.4,3.68.81l-.59,1.75c-.54-.3-1.65-.79-3.16-.79-2.27,0-3.14,1.36-3.14,2.49,0,1.56,1.01,2.32,3.31,3.21,2.82,1.09,4.25,2.45,4.25,4.89,0,2.57-1.9,4.79-5.83,4.79-1.6,0-3.36-.47-4.25-1.06l.54-1.8Z"/>
        <path class="cls-2" d="M180.33,182.89v16.64h-2.15v-16.64h2.15Z"/>
        <path class="cls-2" d="M201.99,198.8c-.96.35-2.86.91-5.11.91-2.52,0-4.59-.64-6.22-2.2-1.43-1.38-2.32-3.61-2.32-6.2.03-4.96,3.43-8.59,9.01-8.59,1.93,0,3.43.42,4.15.77l-.52,1.75c-.89-.4-2-.72-3.68-.72-4.05,0-6.69,2.52-6.69,6.69s2.54,6.72,6.42,6.72c1.41,0,2.37-.2,2.87-.44v-4.96h-3.38v-1.73h5.48v8Z"/>
        <path class="cls-2" d="M210.5,199.54v-16.64h2.35l5.33,8.42c1.23,1.95,2.2,3.7,2.99,5.41l.05-.03c-.2-2.22-.25-4.25-.25-6.84v-6.96h2.02v16.64h-2.17l-5.29-8.45c-1.16-1.85-2.27-3.75-3.11-5.56l-.07.03c.12,2.1.17,4.1.17,6.87v7.11h-2.02Z"/>
      </g>
    </g>
  </g>
</svg>