<?xml version="1.0" standalone="no"?>
<!DOCTYPE svg PUBLIC "-//W3C//DTD SVG 20010904//EN"
 "http://www.w3.org/TR/2001/REC-SVG-20010904/DTD/svg10.dtd">
<svg version="1.0" xmlns="http://www.w3.org/2000/svg"
 width="920.000000pt" height="504.000000pt" viewBox="0 0 920.000000 504.000000"
 preserveAspectRatio="xMidYMid meet">

<g transform="translate(0.000000,504.000000) scale(0.100000,-0.100000)"
fill="#000000" stroke="none">
<path d="M4460 5014 c0 -23 55 -74 79 -74 19 0 21 -6 21 -52 l0 -53 -19 31
c-16 27 -77 62 -88 51 -10 -11 47 -73 75 -82 l32 -9 0 -104 c0 -66 -4 -101
-10 -97 -5 3 -10 12 -10 20 0 18 -48 55 -71 55 -40 0 15 -75 62 -85 26 -6 29
-11 29 -46 0 -45 -5 -48 -31 -15 -24 30 -79 52 -79 31 0 -28 51 -75 81 -75 28
0 29 -1 29 -50 0 -57 -8 -62 -31 -21 -19 33 -79 60 -79 35 0 -26 56 -74 85
-74 23 0 26 -3 21 -22 -3 -13 -6 -36 -6 -51 l0 -29 -117 62 c-65 35 -122 68
-126 74 -6 7 -7 6 -5 -3 3 -8 58 -47 124 -86 l119 -71 3 -182 c1 -100 -1 -182
-5 -182 -5 1 -91 45 -193 98 -166 87 -186 100 -192 127 -6 27 -6 26 -5 -9 l2
-39 175 -102 c96 -57 185 -115 197 -130 23 -26 23 -28 17 -218 -4 -106 -8
-194 -10 -195 -1 -2 -117 55 -258 127 -164 85 -262 141 -276 159 l-20 27 2
-34 c3 -32 10 -38 88 -84 370 -216 442 -262 457 -291 13 -26 15 -57 8 -211 -4
-99 -8 -181 -10 -183 -1 -1 -161 79 -355 179 -384 199 -369 188 -371 282 l-2
52 -7 -55 c-5 -30 -8 -71 -9 -90 l-1 -35 278 -162 c413 -242 437 -257 455
-296 14 -29 15 -59 10 -201 -3 -91 -9 -165 -12 -164 -31 14 -651 334 -737 380
-74 40 -115 68 -123 84 -6 14 -11 55 -12 92 -1 66 -1 65 -16 -42 -8 -59 -13
-109 -11 -110 2 -1 118 -69 258 -151 577 -337 621 -364 636 -400 18 -43 19
-200 1 -235 -7 -13 -24 -30 -37 -37 -21 -11 -8 -13 95 -13 92 1 115 3 100 12
-40 21 -45 38 -45 153 0 83 4 116 15 132 19 27 97 75 535 332 190 111 348 205
352 209 3 4 1 45 -6 92 l-12 85 -7 -59 c-4 -44 -12 -65 -29 -81 -20 -19 -836
-445 -852 -445 -3 0 -6 82 -6 182 l0 181 38 36 c22 20 190 124 375 231 l337
195 -6 55 c-4 30 -10 73 -14 95 -7 35 -8 32 -9 -31 -1 -54 -5 -74 -18 -86 -24
-20 -101 -61 -424 -227 -226 -115 -278 -138 -283 -125 -3 8 -6 96 -6 193 0
162 2 181 20 203 11 14 135 93 277 176 l258 151 -4 53 c-4 53 -4 53 -11 15 -4
-21 -11 -42 -16 -47 -13 -12 -515 -270 -525 -270 -5 0 -9 90 -9 200 0 195 1
202 23 223 12 13 102 69 200 126 171 100 177 104 176 135 l-1 31 -9 -26 c-8
-21 -48 -46 -198 -122 l-188 -97 -7 37 c-3 21 -6 99 -6 174 0 160 -10 145 148
235 56 32 102 61 102 65 0 3 -55 -22 -122 -57 -67 -35 -123 -62 -124 -61 -1 1
-5 146 -9 322 -4 176 -11 322 -14 325 -4 3 -14 17 -23 31 -21 33 -78 56 -78
33z"/>
<path d="M4457 4792 c10 -41 93 -92 93 -58 0 23 -42 64 -72 72 -23 5 -26 3
-21 -14z"/>
<path d="M4861 4654 c-25 -31 -29 -97 -7 -88 23 9 46 51 46 84 0 37 -12 38
-39 4z"/>
<path d="M4355 4605 c-25 -24 -34 -75 -15 -75 21 0 60 49 60 75 0 32 -14 32
-45 0z"/>
<path d="M4224 4603 c2 -10 7 -28 11 -41 3 -12 20 -29 37 -38 l31 -16 -7 33
c-6 32 -46 79 -67 79 -6 0 -8 -8 -5 -17z"/>
<path d="M4740 4589 c12 -40 17 -47 51 -64 27 -15 29 -14 29 4 0 24 -43 77
-69 84 -17 4 -18 1 -11 -24z"/>
<path d="M4904 4540 c-45 -18 -74 -87 -31 -75 26 8 67 50 67 71 0 16 -6 16
-36 4z"/>
<path d="M4359 4501 c-36 -36 -39 -61 -6 -54 28 7 64 39 70 64 8 30 -30 24
-64 -10z"/>
<path d="M4190 4505 c0 -23 46 -65 70 -65 23 0 24 4 8 33 -22 43 -78 65 -78
32z"/>
<path d="M4690 4491 c0 -25 45 -71 70 -71 41 0 11 61 -40 78 -26 10 -30 9 -30
-7z"/>
<path d="M4279 4365 c-15 -8 -32 -29 -38 -46 -11 -31 -10 -31 17 -25 30 7 72
49 72 72 0 18 -17 17 -51 -1z"/>
<path d="M4383 4332 c-22 -3 -73 -55 -73 -73 0 -14 33 -11 58 7 20 14 49 64
40 68 -2 1 -13 0 -25 -2z"/>
<path d="M5018 4313 c-29 -31 -45 -77 -30 -87 5 -3 21 5 36 19 19 17 26 34 26
60 0 19 -1 35 -3 35 -2 0 -15 -12 -29 -27z"/>
<path d="M4080 4316 c0 -32 21 -66 50 -81 34 -18 37 -11 16 40 -18 43 -66 73
-66 41z"/>
<path d="M4419 4261 c-25 -26 -39 -61 -24 -61 17 0 66 33 75 49 26 49 -6 56
-51 12z"/>
<path d="M4870 4278 c0 -37 68 -104 86 -86 11 12 -21 70 -47 83 -34 18 -39 18
-39 3z"/>
<path d="M4043 4183 c18 -34 33 -48 65 -57 16 -5 22 -3 22 8 0 23 -42 65 -73
72 l-29 7 15 -30z"/>
<path d="M4255 4202 c-44 -9 -94 -82 -56 -82 25 0 61 29 72 57 11 30 11 31
-16 25z"/>
<path d="M5039 4161 c-36 -36 -39 -66 -6 -55 30 9 46 23 63 56 14 26 13 28 -7
28 -11 0 -34 -13 -50 -29z"/>
<path d="M4298 4140 c-14 -11 -28 -29 -31 -40 -8 -33 36 -26 67 11 14 17 26
35 26 40 0 16 -36 10 -62 -11z"/>
<path d="M4376 4098 c-13 -13 -27 -34 -31 -46 -6 -21 -4 -23 17 -17 24 7 78
58 78 75 0 18 -38 10 -64 -12z"/>
<path d="M4456 4058 c-13 -13 -27 -34 -31 -46 -6 -22 -5 -23 17 -17 50 16 98
85 58 85 -11 0 -30 -10 -44 -22z"/>
<path d="M4148 4034 c-41 -22 -65 -74 -34 -74 21 0 73 46 79 70 6 24 -7 25
-45 4z"/>
<path d="M3930 3971 c0 -28 33 -81 51 -81 17 0 9 57 -12 84 -27 34 -39 33 -39
-3z"/>
<path d="M4217 3989 c-15 -9 -47 -59 -47 -73 0 -6 25 1 56 16 18 8 44 46 44
63 0 9 -35 5 -53 -6z"/>
<path d="M4305 3946 c-28 -12 -62 -62 -51 -74 3 -2 18 1 34 7 25 11 36 24 60
74 5 10 -8 8 -43 -7z"/>
<path d="M4075 3911 c-23 -10 -49 -38 -58 -63 -5 -13 -1 -18 13 -18 24 0 66
38 75 68 7 23 2 26 -30 13z"/>
<path d="M4355 3885 c-14 -13 -25 -33 -25 -44 0 -18 3 -19 29 -10 28 10 61 47
61 69 0 19 -41 10 -65 -15z"/>
<path d="M3881 3860 c12 -34 44 -60 72 -60 13 0 17 5 13 16 -3 9 -6 20 -6 25
0 10 -37 34 -67 44 -21 6 -22 4 -12 -25z"/>
<path d="M5022 3884 c2 -5 10 -21 17 -36 13 -26 66 -57 77 -45 11 10 -7 47
-29 61 -29 18 -71 31 -65 20z"/>
<path d="M4449 3855 c-27 -15 -57 -75 -38 -75 33 0 89 53 89 85 0 9 -25 4 -51
-10z"/>
<path d="M4650 3849 c0 -26 43 -69 70 -69 11 0 20 5 20 10 0 22 -33 59 -61 69
-26 9 -29 8 -29 -10z"/>
<path d="M5235 3831 c-23 -10 -49 -38 -58 -63 -5 -13 -1 -18 14 -18 24 0 79
52 79 74 0 18 -5 19 -35 7z"/>
<path d="M4073 3805 c-32 -14 -63 -58 -50 -72 11 -10 55 14 72 41 24 36 16 47
-22 31z"/>
<path d="M3865 3768 c8 -29 51 -68 75 -68 40 0 -8 69 -58 85 -22 6 -23 5 -17
-17z"/>
<path d="M4126 3748 c-13 -13 -27 -33 -30 -44 -6 -18 -3 -21 19 -16 24 4 75
54 75 73 0 17 -39 9 -64 -13z"/>
<path d="M4903 3728 c-24 -28 -33 -67 -22 -95 l11 -28 19 24 c19 24 23 61 10
94 -6 16 -9 17 -18 5z"/>
<path d="M4199 3701 c-36 -36 -39 -66 -6 -56 29 9 64 42 70 66 8 30 -30 24
-64 -10z"/>
<path d="M4279 3661 c-36 -36 -39 -66 -6 -56 29 9 64 42 70 66 8 30 -30 24
-64 -10z"/>
<path d="M4759 3644 c-15 -18 -18 -88 -5 -101 14 -14 36 30 36 74 0 46 -9 53
-31 27z"/>
<path d="M3983 3635 c-17 -7 -39 -27 -48 -44 -15 -30 -15 -31 6 -31 24 0 79
51 79 74 0 9 -1 16 -2 16 -2 -1 -17 -7 -35 -15z"/>
<path d="M4384 3640 c-24 -10 -54 -47 -54 -68 0 -32 83 20 93 59 6 20 -5 23
-39 9z"/>
<path d="M4460 3597 c-26 -13 -59 -62 -48 -72 12 -13 62 20 81 53 21 36 11 41
-33 19z"/>
<path d="M4036 3578 c-13 -13 -27 -33 -30 -44 -6 -18 -3 -21 19 -16 24 4 75
54 75 73 0 17 -39 9 -64 -13z"/>
<path d="M4128 3544 c-27 -14 -48 -42 -48 -63 0 -21 32 -11 61 18 27 27 39 62
22 61 -5 -1 -20 -7 -35 -16z"/>
<path d="M5220 3532 c0 -34 69 -86 88 -67 12 12 -23 59 -55 72 -30 12 -33 11
-33 -5z"/>
<path d="M5414 3534 c-29 -14 -61 -60 -50 -71 13 -13 59 11 76 40 32 51 27 57
-26 31z"/>
<path d="M4215 3506 c-34 -15 -50 -31 -59 -62 -6 -19 -3 -21 19 -16 27 5 75
55 75 78 0 17 3 17 -35 0z"/>
<path d="M4927 3501 c6 -25 41 -57 71 -66 22 -6 23 -5 17 17 -14 49 -101 97
-88 49z"/>
<path d="M4790 3434 c0 -23 55 -74 79 -74 21 0 21 1 6 29 -25 49 -85 81 -85
45z"/>
<path d="M5210 3443 c0 -22 42 -71 65 -77 36 -9 40 -4 21 31 -17 35 -86 71
-86 46z"/>
<path d="M4339 3391 c-36 -36 -39 -62 -6 -54 30 8 46 21 63 55 14 26 13 28 -7
28 -11 0 -34 -13 -50 -29z"/>
<path d="M5425 3368 c-27 -15 -44 -39 -45 -60 0 -15 4 -15 30 -6 31 10 60 42
60 65 0 16 -18 16 -45 1z"/>
<path d="M4429 3355 c-23 -12 -55 -62 -46 -71 2 -2 18 1 36 7 26 9 61 51 61
74 0 9 -24 5 -51 -10z"/>
<path d="M4199 3345 c-24 -13 -55 -62 -45 -73 12 -11 68 23 81 49 8 15 15 30
15 34 0 9 -24 5 -51 -10z"/>
<path d="M5532 3237 c-25 -27 -41 -87 -23 -87 24 0 61 49 61 80 0 36 -9 38
-38 7z"/>
<path d="M5370 3214 c0 -23 55 -74 79 -74 39 0 0 61 -50 79 -24 8 -29 7 -29
-5z"/>
<path d="M3642 3110 c0 -14 2 -19 5 -12 2 6 2 18 0 25 -3 6 -5 1 -5 -13z"/>
<path d="M5493 3090 c0 -25 2 -35 4 -22 2 12 2 32 0 45 -2 12 -4 2 -4 -23z"/>
<path d="M5370 3036 c0 -24 33 -56 68 -66 31 -8 33 -8 27 13 -14 46 -95 92
-95 53z"/>
<path d="M4940 2991 c0 -22 53 -71 76 -71 24 0 24 1 9 30 -16 31 -43 50 -69
50 -9 0 -16 -4 -16 -9z"/>
<path d="M5174 2882 c25 -49 86 -83 86 -48 0 23 -42 65 -73 72 l-29 7 16 -31z"/>
<path d="M5010 2835 c0 -16 32 -66 49 -75 25 -13 51 -13 51 0 0 16 -53 68 -77
75 -13 3 -23 4 -23 0z"/>
<path d="M5430 2736 c0 -25 44 -76 66 -76 27 0 9 61 -25 87 -25 19 -41 15 -41
-11z"/>
<path d="M4730 2689 c0 -35 43 -78 78 -79 l24 0 -19 32 c-18 32 -83 69 -83 47z"/>
<path d="M5285 2638 c4 -12 18 -33 31 -45 30 -27 69 -32 60 -7 -3 9 -6 20 -6
25 0 11 -37 34 -68 44 -22 6 -23 5 -17 -17z"/>
<path d="M5071 2534 c-19 -24 -30 -84 -15 -84 20 0 45 26 53 57 16 58 -3 71
-38 27z"/>
<path d="M3922 1605 c-68 -19 -101 -37 -134 -72 -76 -80 -59 -202 35 -257 56
-33 104 -50 267 -92 207 -54 271 -99 256 -180 -15 -80 -113 -126 -269 -126
-125 -1 -191 25 -268 101 -31 32 -61 73 -68 94 -7 20 -19 37 -27 37 -15 0 -15
2 15 -139 l16 -75 70 -18 c231 -59 455 -39 548 50 80 75 86 200 15 269 -51 49
-123 80 -287 123 -206 54 -271 90 -271 151 0 74 85 114 240 114 95 0 111 -3
162 -28 67 -33 112 -82 136 -149 9 -27 23 -48 31 -48 11 0 12 15 6 83 -4 45
-11 88 -17 94 -6 7 -54 27 -107 44 -116 39 -261 48 -349 24z"/>
<path d="M17 1604 c-15 -15 -6 -23 29 -26 l37 -3 0 -340 1 -340 -37 -3 c-24
-2 -37 -8 -37 -18 0 -11 24 -14 130 -14 109 0 130 2 130 15 0 10 -10 15 -30
15 l-30 0 0 155 0 155 131 0 c98 0 139 -4 164 -15 31 -15 55 -50 55 -80 0 -8
7 -15 15 -15 13 0 15 21 15 130 0 109 -2 130 -15 130 -9 0 -15 -9 -15 -24 0
-14 -11 -38 -24 -53 l-24 -28 -151 -3 -151 -3 0 172 0 171 178 -5 c97 -3 190
-9 206 -13 43 -10 89 -63 111 -127 28 -84 48 -76 39 16 -3 39 -9 90 -13 112
l-7 40 -349 3 c-193 2 -354 0 -358 -4z"/>
<path d="M1039 1456 c-159 -56 -243 -157 -243 -291 0 -188 167 -315 414 -315
140 0 239 33 321 107 144 131 116 358 -58 460 -116 68 -305 85 -434 39z m313
-28 c60 -25 123 -93 140 -150 7 -23 13 -79 13 -123 0 -67 -4 -89 -28 -137 -48
-99 -127 -140 -267 -140 -138 0 -218 41 -267 135 -24 46 -27 63 -27 147 -1
107 18 162 72 216 80 80 242 103 364 52z"/>
<path d="M4833 1473 c-242 -3 -283 -5 -283 -18 0 -10 11 -15 35 -15 l35 0 0
-275 0 -275 -35 0 c-24 0 -35 -5 -35 -14 0 -13 47 -15 308 -18 175 -2 310 1
314 6 3 5 9 34 13 64 4 30 9 61 12 69 3 7 -1 13 -8 13 -8 0 -24 -19 -37 -43
-38 -72 -54 -77 -256 -77 l-176 0 0 135 0 135 115 0 c134 0 172 -13 182 -60
12 -64 23 -25 23 85 0 70 -4 115 -10 115 -5 0 -10 -11 -10 -24 0 -14 -11 -37
-24 -52 -23 -27 -27 -28 -150 -32 l-126 -4 0 126 0 126 169 0 c166 0 170 0
199 -25 16 -14 37 -43 46 -65 20 -51 40 -53 32 -2 -3 20 -8 58 -12 85 -5 36
-10 46 -23 45 -9 -2 -143 -4 -298 -5z"/>
<path d="M6370 1467 c-113 -27 -160 -73 -160 -159 0 -39 6 -54 31 -82 35 -40
83 -60 253 -105 169 -46 206 -68 206 -128 0 -48 -14 -70 -63 -95 -36 -19 -58
-23 -152 -23 -95 0 -116 3 -151 22 -47 25 -122 105 -130 140 -6 20 -24 33 -24
16 0 -22 24 -141 31 -155 14 -27 147 -52 274 -52 92 1 118 4 163 24 92 40 137
120 113 201 -22 74 -80 110 -247 154 -141 37 -185 54 -216 83 -43 40 -37 79
19 113 44 27 181 38 247 19 61 -17 118 -68 147 -132 l24 -53 3 56 c5 90 -5
103 -96 133 -95 32 -196 40 -272 23z"/>
<path d="M7130 1462 c-121 -41 -204 -104 -241 -185 -30 -67 -26 -171 9 -238
34 -65 109 -129 189 -160 80 -31 255 -39 339 -14 114 33 205 99 247 180 31 59
30 174 -1 235 -36 69 -96 124 -176 161 -66 32 -79 34 -191 36 -95 2 -132 -1
-175 -15z m271 -23 c56 -14 111 -60 144 -120 28 -50 30 -62 30 -154 0 -88 -3
-107 -26 -150 -29 -58 -92 -109 -152 -126 -59 -16 -173 -16 -232 1 -69 19
-146 96 -166 165 -32 112 -7 249 59 318 72 76 205 101 343 66z"/>
<path d="M8790 1470 c-99 -18 -151 -57 -170 -124 -11 -41 -10 -49 9 -89 28
-58 82 -87 241 -128 190 -48 240 -78 240 -140 0 -33 -32 -74 -73 -96 -41 -21
-201 -30 -249 -14 -69 23 -126 68 -159 126 -17 30 -34 55 -38 55 -4 0 -1 -38
8 -85 l15 -85 50 -15 c146 -44 319 -41 414 7 64 32 85 65 90 141 4 57 1 66
-23 95 -33 39 -96 72 -185 96 -238 65 -280 87 -280 144 0 56 71 91 185 92 132
0 192 -32 245 -130 l35 -65 3 35 c1 19 -1 55 -6 80 l-7 45 -80 28 c-86 30
-192 41 -265 27z"/>
<path d="M1670 1455 c0 -10 11 -15 35 -15 l35 0 0 -178 c0 -216 11 -263 74
-327 59 -59 133 -85 240 -85 109 0 167 20 226 80 71 70 80 108 80 327 l0 183
30 0 c20 0 30 5 30 15 0 12 -14 15 -70 15 -56 0 -70 -3 -70 -15 0 -10 10 -15
30 -15 l30 0 0 -168 c0 -195 -12 -252 -66 -312 -51 -56 -114 -82 -199 -83 -79
0 -121 16 -167 67 -47 51 -59 111 -65 314 l-6 182 36 0 c22 0 37 6 41 15 5 13
-13 15 -119 15 -104 0 -125 -2 -125 -15z"/>
<path d="M2480 1455 c0 -11 11 -15 40 -15 l40 0 0 -275 0 -275 -40 0 c-29 0
-40 -4 -40 -15 0 -12 20 -15 120 -15 100 0 120 3 120 15 0 10 -10 15 -30 15
l-30 0 0 120 0 120 128 0 127 0 73 -140 73 -140 90 0 c87 0 119 13 62 26 -42
8 -68 23 -81 44 -17 27 -104 222 -100 224 2 2 18 8 36 16 43 17 89 71 98 115
8 45 -18 117 -53 145 -54 43 -111 50 -380 50 -218 0 -253 -2 -253 -15z m511
-38 c62 -42 75 -156 24 -211 -33 -36 -84 -46 -227 -46 l-128 0 0 140 0 140
149 0 c138 0 150 -2 182 -23z"/>
<path d="M5570 1456 c0 -8 11 -16 24 -18 24 -3 18 -15 -127 -275 -141 -254
-154 -273 -179 -273 -18 0 -28 -5 -28 -15 0 -12 15 -15 75 -15 60 0 75 3 75
15 0 10 -10 15 -30 15 -16 0 -30 3 -29 8 0 4 20 41 43 82 l44 75 200 3 201 2
45 -82 45 -83 -29 -3 c-18 -2 -30 -9 -30 -18 0 -11 22 -14 120 -14 100 0 120
3 120 15 0 10 -10 15 -32 15 -33 1 -35 4 -191 290 l-159 290 -79 0 c-62 0 -79
-3 -79 -14z m158 -195 c45 -82 82 -154 82 -160 0 -8 -56 -11 -176 -11 -97 0
-174 3 -172 8 15 34 173 312 177 312 3 0 43 -67 89 -149z"/>
<path d="M7760 1455 c0 -9 9 -15 23 -15 46 0 47 -9 47 -287 l0 -263 -35 0
c-24 0 -35 -5 -35 -15 0 -12 16 -15 85 -15 69 0 85 3 85 15 0 10 -11 15 -35
15 l-35 0 0 246 c0 143 4 244 9 242 5 -1 109 -97 232 -213 123 -115 250 -236
284 -267 l60 -56 3 299 2 299 30 0 c20 0 30 5 30 15 0 12 -15 15 -75 15 -60 0
-75 -3 -75 -15 0 -10 11 -15 35 -15 l35 0 0 -215 c0 -118 -3 -215 -6 -215 -3
0 -115 104 -249 230 l-244 230 -85 0 c-70 0 -86 -3 -86 -15z"/>
<path d="M7 343 c-2 -5 -3 -82 -3 -173 l1 -165 30 0 30 0 3 68 3 67 100 0
c138 0 179 23 179 102 0 43 -24 76 -66 94 -36 15 -270 20 -277 7z m253 -56
c30 -15 38 -58 15 -81 -13 -12 -37 -16 -111 -16 l-94 0 0 55 0 55 83 0 c46 0
93 -6 107 -13z"/>
<path d="M562 178 l3 -173 24 0 c22 0 23 4 25 65 l2 65 75 3 76 3 58 -71 c46
-54 65 -70 85 -70 15 0 30 3 33 6 3 4 -19 36 -51 72 -53 60 -56 66 -38 76 42
24 56 46 56 87 0 91 -37 109 -220 109 l-130 0 2 -172z m279 105 c18 -18 14
-65 -7 -80 -12 -9 -51 -13 -121 -13 l-103 0 0 48 c0 27 3 52 8 56 12 12 210 2
223 -11z"/>
<path d="M1154 178 l1 -173 160 0 160 0 3 28 3 27 -135 0 -136 0 0 50 0 50
125 0 125 0 0 25 0 25 -125 0 -125 0 0 40 0 40 130 0 130 0 0 30 0 30 -159 0
-159 0 2 -172z"/>
<path d="M1712 178 l3 -173 25 0 c24 0 25 3 28 73 l3 72 114 0 115 0 0 25 0
25 -115 0 -115 0 0 50 0 50 120 0 120 0 0 25 0 25 -150 0 -150 0 2 -172z"/>
<path d="M2240 175 l0 -175 160 0 160 0 0 30 0 30 -135 0 -135 0 0 50 0 50
125 0 125 0 0 25 0 25 -126 0 -125 0 3 41 3 41 128 -1 127 -2 0 30 0 31 -155
0 -155 0 0 -175z"/>
<path d="M2792 178 l3 -173 28 -3 27 -3 0 70 0 71 78 -1 77 -1 58 -69 c48 -57
63 -69 87 -69 17 0 30 4 30 8 0 5 -25 37 -55 72 l-55 63 30 19 c41 25 56 59
44 105 -17 67 -45 78 -210 81 l-144 3 2 -173z m276 106 c26 -18 28 -50 5 -76
-14 -15 -32 -18 -120 -18 l-103 0 0 55 0 55 98 0 c72 0 103 -4 120 -16z"/>
<path d="M3402 178 c3 -170 3 -173 25 -176 21 -3 22 1 25 65 l3 68 76 3 76 3
58 -71 c45 -55 63 -70 84 -70 15 0 31 3 34 6 3 4 -18 35 -48 69 -30 34 -55 65
-55 68 0 4 13 13 29 22 32 16 46 44 42 89 -5 78 -45 96 -221 96 l-130 0 2
-172z m284 98 c19 -27 18 -42 -6 -66 -17 -17 -33 -20 -125 -20 l-105 0 0 48
c0 27 3 52 8 56 4 4 53 6 110 4 89 -3 106 -6 118 -22z"/>
<path d="M4010 185 c0 -91 0 -168 0 -172 0 -5 71 -8 158 -8 l157 0 3 28 3 27
-135 0 -136 0 0 50 0 50 125 0 125 0 0 25 0 25 -126 0 -125 0 3 41 3 41 125 1
125 2 3 28 3 27 -155 0 -156 0 0 -165z"/>
<path d="M4552 179 l3 -174 105 0 c92 0 111 3 155 25 65 33 90 75 89 151 -1
67 -26 114 -76 144 -27 16 -55 20 -156 23 l-122 4 2 -173z m233 107 c58 -25
80 -92 51 -161 -20 -48 -60 -65 -151 -65 l-75 0 0 120 0 120 70 0 c39 0 86 -6
105 -14z"/>
<path d="M5472 178 l3 -173 25 0 c24 0 25 3 28 67 l3 66 114 4 c104 3 116 5
139 27 21 20 26 34 26 70 -1 89 -45 111 -220 111 l-120 0 2 -172z m248 109
c30 -15 38 -58 15 -81 -13 -12 -37 -16 -111 -16 l-94 0 0 48 c0 27 3 52 7 55
11 12 157 7 183 -6z"/>
<path d="M6028 181 c-48 -92 -85 -171 -81 -175 3 -3 17 -6 30 -6 18 0 28 11
45 45 l22 45 99 0 98 0 20 -45 c17 -39 24 -45 50 -45 20 0 29 5 27 13 -2 6
-40 85 -86 175 -76 150 -84 162 -110 162 -25 0 -34 -13 -114 -169z m151 30
c17 -32 31 -62 31 -65 0 -3 -31 -6 -70 -6 l-70 0 32 65 c18 36 35 65 39 65 3
0 20 -27 38 -59z"/>
<path d="M6542 178 l3 -173 25 0 c24 0 25 3 28 68 l3 67 73 0 74 0 53 -63 c30
-34 58 -65 64 -69 13 -10 65 -10 65 0 0 4 -25 35 -56 70 -31 35 -55 64 -53 65
2 2 16 10 30 19 58 37 61 121 6 162 -25 19 -45 21 -173 24 l-144 3 2 -173z
m278 102 c24 -24 25 -47 3 -72 -14 -15 -32 -18 -120 -18 l-103 0 0 55 0 55
100 0 c87 0 103 -3 120 -20z"/>
<path d="M7100 325 c0 -24 2 -25 65 -25 l64 0 3 -147 3 -148 25 0 25 0 3 148
3 147 64 0 c63 0 65 1 65 25 l0 25 -160 0 -160 0 0 -25z"/>
<path d="M7632 178 c3 -171 3 -173 26 -176 22 -3 22 -3 22 127 0 72 4 131 8
131 5 0 64 -59 132 -131 167 -177 164 -178 168 49 l2 172 -30 0 -30 0 0 -125
c0 -69 -3 -125 -7 -124 -5 0 -60 57 -123 125 -93 100 -120 124 -143 124 l-27
0 2 -172z"/>
<path d="M8250 175 l0 -176 158 3 157 3 3 28 3 27 -135 0 -136 0 0 50 0 50
125 0 125 0 0 25 0 25 -125 0 -125 0 0 40 0 40 130 0 130 0 0 30 0 30 -155 0
-155 0 0 -175z"/>
<path d="M8792 178 l3 -173 25 0 c24 0 25 3 28 68 l3 67 73 0 74 0 53 -63 c30
-34 58 -65 64 -69 13 -10 65 -10 65 0 0 4 -26 36 -57 71 -37 41 -53 66 -45 69
7 2 25 15 40 27 22 19 27 31 26 69 -2 87 -42 106 -224 106 l-130 0 2 -172z
m276 106 c26 -18 28 -50 5 -76 -14 -15 -32 -18 -120 -18 l-103 0 0 55 0 55 98
0 c72 0 103 -4 120 -16z"/>
</g>
</svg>
